<svg width="92" height="19" viewBox="0 0 92 19" fill="none" xmlns="http://www.w3.org/2000/svg">
<g clip-path="url(#clip0)">
<path d="M30.0066 10.1985C30.4273 11.0113 30.4895 11.8002 30.0974 12.613L29.0695 14.8746C28.4957 16.1703 27.5299 16.8062 26.2007 16.8062H19.9277H16.3369L18.0869 12.9716L19.6264 9.59124L22.28 11.585L21.6441 12.9716H24.8428C24.9337 12.7899 24.8715 12.5509 24.6898 12.2162L21.9454 7.14801C21.5246 6.33519 21.4624 5.54628 21.8545 4.73347L22.8825 2.47192C23.4562 1.20488 24.4221 0.540284 25.7513 0.540284H32.0578H35.6485L33.8986 4.37487L32.359 7.75523L29.6719 5.76144L30.3078 4.37487H27.1091C27.0183 4.55656 27.0804 4.79562 27.2621 5.13031L30.0066 10.1985ZM42.4092 6.72726L45.2445 0.511597H50.3127L42.8634 16.7775H37.8192L40.6545 10.5618H37.8192L34.9839 16.7775H29.9157L37.3698 0.511597H42.4379L39.6026 6.72726H42.4092ZM55.3569 4.37487L53.7552 7.87476H55.749C56.3228 7.87476 56.7435 7.57354 57.016 6.9711L57.8002 5.28331C58.0727 4.68087 57.9197 4.37965 57.3794 4.37965H55.3569V4.37487ZM52.426 11.7094H52.0053L49.6816 16.7775H44.6134L52.0674 0.511597H63.0835C64.4127 0.511597 64.7713 1.14751 64.1688 2.44323L60.8172 9.77771C60.2434 11.0448 59.2776 11.7094 57.9484 11.7094H57.6185L58.3404 16.7775H53.1814L52.426 11.7094ZM67.1858 10.5905L66.1005 12.9764H72.8899L71.1399 16.811H59.2824L66.7364 0.545066H78.5605L76.8105 4.37965H70.0211L68.9358 6.76551H74.5777L72.8277 10.6001H67.1858V10.5905ZM83.5999 4.37487L79.6745 12.9429H81.2141C81.7878 12.9429 82.6628 12.613 83.3274 11.193L85.6511 6.12482C86.287 4.73825 85.7133 4.34618 85.1682 4.34618L83.5999 4.37487ZM72.8277 16.811L80.2817 0.545066H89.3949C90.724 0.545066 92.8661 1.4822 91.4173 4.59003L87.5827 12.9477C86.5882 15.0897 83.2366 16.811 81.9408 16.811H72.8277Z" fill="#010101"/>
<path d="M0.0996094 0H7.07071L9.27488 3.77243H7.88353L11.3547 10.1985L14.496 3.77243H13.1047L15.3089 0H21.558L11.5077 18.8L0.0996094 0Z" fill="#010101"/>
</g>
<defs>
<clipPath id="clip0">
<rect width="91.8005" height="18.8" fill="white" transform="translate(0.0996094)"/>
</clipPath>
</defs>
</svg>
